<svg id="Capa_1" data-name="Capa 1" xmlns="http://www.w3.org/2000/svg" viewBox="0 0 707 148"><path d="M107.82,15.92c1.08.31,2.18.58,3.25.93a18.43,18.43,0,1,1-9.13-.68c.22,0,.5.07.6-.25Z" style="fill:#63163f"/><path d="M306.33,82.41V55.89c0-4.88,0-9.76,0-14.64,0-.85.15-1.19,1.1-1.16,2.48.07,5,0,7.44,0,.61,0,.82.14.82.79q0,31.79,0,63.59a2,2,0,0,1-.11.37L271.37,58.77a2.17,2.17,0,0,0-.22,1.44q0,19.8,0,39.59c0,1.08-.25,1.43-1.37,1.38-2.28-.09-4.56-.08-6.84,0-.95,0-1.09-.29-1.09-1.14q0-22.8,0-45.59V35.93Z" style="fill:#63163f"/><path d="M330.17,70.57c0-9.76,0-19.52,0-29.28,0-.92.21-1.2,1.18-1.2q15.72.06,31.44,0c1,0,1.18.29,1.15,1.2q-.1,3.24,0,6.48c0,.84-.21,1.06-1,1.05-7.4,0-14.8,0-22.2,0-1,0-1.26.25-1.24,1.25q.09,6.06,0,12.12c0,1,.18,1.34,1.28,1.33,7.12-.06,14.24,0,21.36-.05.87,0,1.16.16,1.13,1.09-.08,2.2-.07,4.4,0,6.6,0,.88-.28,1-1.08,1-7.16,0-14.32,0-21.48,0-.91,0-1.22.19-1.21,1.17q.07,9.06,0,18.12c0,.91.24,1.12,1.13,1.11,7.4,0,14.8,0,22.2,0,1,0,1.19.27,1.16,1.19-.07,2.2-.05,4.4,0,6.6,0,.73-.17.94-.92.94q-15.9,0-31.8,0c-1,0-1-.46-1-1.22Q330.18,85.27,330.17,70.57Z" style="fill:#63163f"/><path d="M676.34,38.93c8.32-.08,13.53,3.63,17.29,9.79.24.4.18.59-.22.82-2.17,1.26-4.34,2.54-6.49,3.85-.5.31-.68.11-.92-.29s-.66-1-1-1.51c-3.25-5.22-10.67-4.57-13.89-1.91-3.54,2.92-3.59,7.63,0,10.47a22.3,22.3,0,0,0,5.4,2.81A81.61,81.61,0,0,1,686,67.15c6.31,3.63,9.55,8.81,9.47,16.34a18.81,18.81,0,0,1-12,17.41c-7,2.47-13.8,2-19.87-2.63-4.36-3.35-6.27-8.13-7.15-13.41-.09-.51.13-.65.52-.73,2.69-.58,5.39-1.15,8.07-1.76.73-.17.76.21.84.74.36,2.46.78,4.89,2.37,6.93A10.32,10.32,0,0,0,679,93.23a9.73,9.73,0,0,0,7-8.15c.59-4.64-1.26-8-5.21-10.29a81.69,81.69,0,0,0-9.16-4.11,30.64,30.64,0,0,1-6.16-3.42c-8.82-6.54-8.66-18.55.32-24.89A18.65,18.65,0,0,1,676.34,38.93Z" style="fill:#63163f"/><path d="M178.41,86.67c0,3.63,0,7.07,0,10.5a1,1,0,0,1-.64,1c-11.74,6.36-26.73,5.41-37.11-3.82C127.24,82.42,127,61.81,138.89,48.94a32.08,32.08,0,0,1,38.57-6.11,1.62,1.62,0,0,1,1,1.67c-.05,3.22,0,6.45,0,9.9-6-4.92-12.47-7.62-20.15-6.45a21.47,21.47,0,0,0-13.74,8.23c-7.07,8.73-6.46,22.25,1.16,30.5C152.39,93.93,166.3,97.71,178.41,86.67Z" style="fill:#63163f"/><path d="M421.05,86.71c0,3.58,0,7,0,10.38a1.1,1.1,0,0,1-.67,1.12C400.15,109,378,97.53,373.66,78c-4.29-19.13,9-35,23.4-38.19a32.23,32.23,0,0,1,23,3,1.68,1.68,0,0,1,1,1.75c-.06,3.19,0,6.38,0,9.82-6.51-5.32-13.59-8-21.89-6.06a21.71,21.71,0,0,0-12.56,8.63c-6,8-6.23,21.68,2.14,30.18C395.29,93.76,409.11,97.7,421.05,86.71Z" style="fill:#63163f"/><path d="M440.25,74.84c0-8.28,0-16.56,0-24.84,0-1-.27-1.24-1.25-1.23-3.92.06-7.84,0-11.76,0-.86,0-1.06-.25-1-1.07.06-2.24.05-4.48,0-6.72,0-.75.21-.93.94-.93q17.7,0,35.4,0c.72,0,1,.16.94.92-.05,2.28-.06,4.56,0,6.84,0,.85-.3,1-1,1-3.92,0-7.84,0-11.76,0-1,0-1.22.28-1.22,1.25,0,16.6,0,33.2.05,49.8,0,1.12-.3,1.4-1.38,1.36-2.28-.08-4.56-.07-6.84,0-.93,0-1.11-.27-1.11-1.15C440.27,91.64,440.25,83.24,440.25,74.84Z" style="fill:#63163f"/><path d="M199,117c2.29-3.1,6.77-3.78,8.07-.24.48-.36,1.09-.79,1.68-1.25a4.72,4.72,0,0,1,5-.69c1.6.65,2,2.14,2.06,3.64.1,2.56,0,5.12.06,7.68,0,.62-.21,1-.91,1s-.81-.46-.81-1q0-3,0-6c0-.48-.08-1-.1-1.43-.11-2.87-2.88-3.16-4.53-1.94a5.17,5.17,0,0,0-2.08,4.25c0,1.68,0,3.36,0,5,0,.62-.06,1.09-.88,1.11s-.9-.52-.9-1.1c0-2.24,0-4.48,0-6.72,0-1.28-.1-2.53-1.52-3.1a3.55,3.55,0,0,0-3.84,1.29,5.94,5.94,0,0,0-1.3,3.9q0,2.34,0,4.68c0,.54,0,1-.8,1s-.93-.41-.93-1.05q0-5.1,0-10.2c0-.62.07-1.13.86-1.13s.87.53.87,1.13C198.92,116.12,198.95,116.43,199,117Z" style="fill:#6f6f6e"/><path d="M178.59,117.1c1.54-2,3.29-3,5.56-2.66a3.36,3.36,0,0,1,3.29,3.35c.14,2.83.07,5.67.09,8.5,0,.57-.31.74-.84.76-.71,0-.89-.35-.88-1,0-2.16,0-4.31,0-6.47a9.63,9.63,0,0,0,0-1.2,2.51,2.51,0,0,0-3.1-2.36,4.71,4.71,0,0,0-4.09,4.6c0,1.72,0,3.43,0,5.15,0,.6.08,1.23-.85,1.25s-.94-.65-.94-1.29q0-4.91,0-9.83c0-.62,0-1.25.87-1.25s.87.61.86,1.24C178.52,116.22,178.56,116.53,178.59,117.1Z" style="fill:#6f6f6e"/><path d="M234.3,117.2a6.19,6.19,0,0,1,4.11-2.76c2.71-.42,4.49.77,4.83,3.47a78.18,78.18,0,0,1,.14,8.26c0,.59-.26.85-.87.87s-.91-.34-.91-1c0-2,0-3.92,0-5.87,0-.6,0-1.2-.07-1.79A2.4,2.4,0,0,0,238.6,116a4.78,4.78,0,0,0-4.26,4.83c0,1.72,0,3.44,0,5.15,0,.56,0,1-.82,1s-.91-.41-.91-1.06q0-5.15,0-10.31c0-.63.17-1,.85-1s.9.38.85,1C234.27,116.1,234.3,116.53,234.3,117.2Z" style="fill:#6f6f6e"/><path d="M380.25,117.29a6.14,6.14,0,0,1,4.29-2.87c2.72-.38,4.6,1,4.74,3.76s0,5.35.06,8c0,.63-.3.83-.89.83s-.84-.31-.83-.89c0-2.2,0-4.4,0-6.6,0-1.29,0-2.68-1.43-3.29a3.85,3.85,0,0,0-4.12.85,4.75,4.75,0,0,0-1.7,3.81c0,1.64,0,3.28,0,4.92,0,.63,0,1.21-.92,1.2s-.87-.62-.87-1.24c0-3.32,0-6.64,0-10,0-.69.12-1.2,1-1.18s.73.65.74,1.2C380.25,116.23,380.25,116.59,380.25,117.29Z" style="fill:#6f6f6e"/><path d="M171.42,124.54c-1.35,1.82-2.81,2.83-4.89,2.79-2.53-.06-3.89-1.26-4-3.81s0-5.28,0-7.92c0-.59.18-.91.79-.93s.92.28.91.95c0,1.84,0,3.68,0,5.52,0,.52,0,1,0,1.56.16,2.77,2.12,3.87,4.58,2.53a4.92,4.92,0,0,0,2.55-4.46c.06-1.68,0-3.36,0-5,0-.68.18-1.08.93-1.06s.81.46.8,1.06c0,3.4,0,6.8,0,10.2,0,.59,0,1.13-.83,1.13s-.87-.51-.85-1.12C171.42,125.57,171.42,125.21,171.42,124.54Z" style="fill:#6f6f6e"/><path d="M398.41,127.32a6.12,6.12,0,0,1-6-4.23,6.64,6.64,0,0,1,2-7.27,6.73,6.73,0,0,1,7.74-.37c.5.33,1,.63.53,1.33s-.9.34-1.4,0c-2.57-1.54-5.53-.85-6.84,1.57a5,5,0,0,0,2.17,7,4.93,4.93,0,0,0,5-.52c.46-.3.91-.8,1.4-.06s0,1-.51,1.34A6.51,6.51,0,0,1,398.41,127.32Z" style="fill:#6f6f6e"/><path d="M250.21,127.32a6.18,6.18,0,0,1-3.61-1.1c-.46-.32-.84-.68-.41-1.27s.81-.37,1.25-.08a4.82,4.82,0,0,0,3.28.92c.94-.12,1.82-.4,2.07-1.5s-.48-1.7-1.35-2.12-1.55-.63-2.32-1c-2.15-.91-3.09-2.24-2.79-3.94s2-2.9,4.15-2.91a5.88,5.88,0,0,1,3.09.84c.44.26.83.5.47,1.12a.74.74,0,0,1-1.19.29,4.28,4.28,0,0,0-2.75-.64c-.93.08-1.76.36-2,1.38s.37,1.67,1.2,2.09,1.54.67,2.31,1c2.36,1,3.27,2.22,2.91,4.06S252.57,127.34,250.21,127.32Z" style="fill:#6f6f6e"/><path d="M351.24,127.32a6.32,6.32,0,0,1-3.71-1.15c-.43-.31-.73-.66-.37-1.2s.79-.45,1.25-.14a4.76,4.76,0,0,0,3.62.92,1.94,1.94,0,0,0,1.79-1.53,1.75,1.75,0,0,0-1.22-2c-1-.49-2.07-.85-3.07-1.33a3.28,3.28,0,0,1-2.22-3.11c0-2,1.64-3.39,4.13-3.43a5.9,5.9,0,0,1,3.2.87c.41.24.75.48.43,1s-.66.68-1.18.35a4.47,4.47,0,0,0-3-.64,1.86,1.86,0,0,0-1.84,1.44,1.75,1.75,0,0,0,1.06,1.95,30.78,30.78,0,0,0,2.86,1.22c1.25.6,2.43,1.29,2.55,2.89C355.7,125.84,354,127.34,351.24,127.32Z" style="fill:#6f6f6e"/><path d="M363.12,127.14a4,4,0,0,1-4.25-4.27c-.05-1.88,0-3.75,0-5.63,0-.6,0-1.14-.83-1a.64.64,0,0,1-.79-.67.66.66,0,0,1,.83-.75c.73.09.88-.27.83-.9s0-1.12,0-1.68.27-.93.92-.93.8.39.77.94c0,.12,0,.24,0,.36,0,2.09,0,2.11,2.16,2.2.54,0,1,.08.95.76s-.51.67-1,.69c-2.1.07-2.1.08-2.1,2.15,0,1.4,0,2.8,0,4.19a2.66,2.66,0,0,0,2.5,3c.67.13.9.42.83,1S363.33,127.09,363.12,127.14Z" style="fill:#6f6f6e"/><path d="M271.5,121.9c0,2.12.07,4.24,0,6.35a3.93,3.93,0,0,1-4,3.83c-.45,0-.92,0-1-.56s.24-.84.77-1c2.12-.59,2.55-1.17,2.55-3.36q0-5.63,0-11.27c0-.64,0-1.23.87-1.23s.86.61.85,1.24c0,2,0,4,0,6Z" style="fill:#6f6f6e"/><path d="M344.18,121c0,1.68,0,3.36,0,5,0,.65-.15,1.07-.93,1.06s-.87-.42-.87-1c0-3.48,0-7,0-10.43,0-.65.27-1,.92-1s.89.39.89,1C344.17,117.44,344.18,119.2,344.18,121Z" style="fill:#6f6f6e"/><path d="M407.57,120.8c0,1.75,0,3.51,0,5.26,0,.61-.12,1-.85,1s-.88-.37-.88-1q0-5.2,0-10.41c0-.62.18-1,.86-1s.88.34.87,1C407.56,117.37,407.57,119.08,407.57,120.8Z" style="fill:#6f6f6e"/><path d="M343.3,111.91c-.89.11-1-.4-1-1s.22-1.12,1-1.1.87.59.88,1.22S344,112.05,343.3,111.91Z" style="fill:#6f6f6e"/><path d="M269.79,110.88c-.09-.71.11-1.13.94-1.1s.91.46.92,1.08-.18,1.09-1,1.08S269.72,111.52,269.79,110.88Z" style="fill:#6f6f6e"/><path d="M407.6,110.85c.08.68,0,1.09-.85,1.09s-.92-.36-.91-1,.05-1.16.94-1.14S407.67,110.27,407.6,110.85Z" style="fill:#6f6f6e"/><path d="M113.22,55.07c.08-.75-.17-.86-.88-.6a20.79,20.79,0,0,1-28-19.11,25,25,0,0,1,1.14-7.24H12.77c-.4,0-.8,0-1.2,0V129.68c.24,0,.48,0,.72,0q49.91,0,99.82,0c1.06,0,1.12-.41,1.12-1.25q0-36.53,0-73.07C113.22,55.31,113.21,55.19,113.22,55.07ZM62.39,90.8A11.88,11.88,0,1,1,74.25,78.89,12,12,0,0,1,62.39,90.8Z" style="fill:#63163f"/><path d="M616.3,38.89c-17.45-.12-32.39,14.44-32.39,31.53,0,20.41,17.1,31.66,31.14,31.92,17.93.33,33.15-14.23,32.76-31.61C648.22,53.72,633.36,39,616.3,38.89Zm-.56,54.76A22.85,22.85,0,0,1,593.31,70.4a22.58,22.58,0,0,1,22.6-22.76c12.68-.06,22.55,10,22.55,23A22.58,22.58,0,0,1,615.74,93.65Z" style="fill:#63163f"/><path d="M218.71,38.89c-17.59-.06-32.6,14.77-32.17,31.53-.35,20.16,16.78,31.6,30.93,31.92,17.85.39,33-14,33-31.62C250.42,53.31,235.58,38.94,218.71,38.89Zm3.43,54.42c-12.34,2.25-24.64-6.92-26-19.4-1.12-10,2.24-18,10.92-23.12A22.39,22.39,0,0,1,240.81,67.6c.12,1,.18,2.07.26,3.1A22.68,22.68,0,0,1,222.14,93.31Z" style="fill:#63163f"/><path d="M573.35,58.75C569,47.24,559.94,41.5,547.84,40.41c-6.1-.55-12.23-.16-18.34-.31-1,0-1.23.27-1.23,1.25,0,9.76,0,19.51,0,29.27s0,19.67,0,29.51c0,.55-.14,1.07.79,1.05,6.35-.13,12.71.2,19.06-.3A28.51,28.51,0,0,0,569.27,89.6C576.54,80.19,577.41,69.53,573.35,58.75Zm-9.47,22.1A20.4,20.4,0,0,1,548.22,92a65.53,65.53,0,0,1-9.57.5c-.88,0-1.14-.18-1.13-1.11,0-7,0-13.92,0-20.88s0-13.68,0-20.52c0-1,.29-1.23,1.26-1.23,4.44,0,8.86.13,13.17,1.43a20,20,0,0,1,14,17.12C566.45,72,566.11,76.6,563.88,80.85Z" style="fill:#63163f"/><path d="M491.57,36.21l-30.24,64.95c3,0,5.81,0,8.63,0a1.75,1.75,0,0,0,2-1.22c1.86-4.23,3.83-8.42,5.73-12.64a1.42,1.42,0,0,1,1.52-1q11.94.05,23.88,0a1.44,1.44,0,0,1,1.59,1c1.8,4.3,3.7,8.57,5.52,12.86a1.27,1.27,0,0,0,1.4.94c2.72-.06,5.44,0,8.16,0,.29,0,.62.11.94-.19Zm7.7,41.45c-5.68-.05-11.35,0-17.27,0L491.41,57l1.66,3.81q3.43,7.83,6.86,15.66C500.27,77.28,500.44,77.67,499.27,77.66Z" style="fill:#63163f"/><path d="M338.69,125.73q0-7.31,0-14.62c0-.64.11-1.34-.9-1.32s-.82.67-.82,1.27c0,1.72,0,3.43,0,5.32-.23-.14-.35-.18-.41-.26-2.25-2.94-7.29-2.05-8.66,1.89a8.93,8.93,0,0,0-.25,5,5.21,5.21,0,0,0,6,4.33,5.31,5.31,0,0,0,3.27-2c0,.26,0,.38,0,.5,0,.57-.19,1.26.79,1.28S338.69,126.36,338.69,125.73Zm-3.9-.38c-2.33,1.24-4.93-.21-5.43-3a11.91,11.91,0,0,1-.12-1.27c0-3.24,1.67-5.18,4.11-5.11a2.94,2.94,0,0,1,1.27.3c1.83.94,2.34,2.62,2.39,4.49S336.6,124.39,334.79,125.36Z" style="fill:#6f6f6e"/><path d="M154.13,125.89q-2.81-7.57-5.6-15.15a1.22,1.22,0,0,0-1.29-1c-.77,0-1,.4-1.26,1-1.83,5-3.68,10-5.51,14.93-.16.43-.64,1,.19,1.28a1.07,1.07,0,0,0,1.5-.76c.41-1.29.95-2.54,1.37-3.83a1,1,0,0,1,1.18-.87c1.68.06,3.36.06,5,0a1.13,1.13,0,0,1,1.27.94c.43,1.28,1,2.54,1.39,3.82a.91.91,0,0,0,1.06.73C154.46,127.1,154.38,126.56,154.13,125.89Zm-4.95-5.83c-1.31-.06-2.63,0-3.94,0-.68,0-.84-.19-.59-.84.89-2.38,1.75-4.77,2.67-7.31.7,2.55,1.66,4.87,2.52,7.21C150.1,119.86,150,120.09,149.18,120.06Z" style="fill:#6f6f6e"/><path d="M277.25,120.93c1.15.07,2.32,0,3.47,0h3.83c.54,0,1.09,0,1.11-.77.07-2.18-.92-5-4-5.65-3.66-.72-6.71,1.53-7.21,5.49a6,6,0,0,0,2.8,6.3,6.69,6.69,0,0,0,7.26,0c.5-.28,1-.64.55-1.33s-.93-.28-1.41,0a7.29,7.29,0,0,1-.85.44,4.73,4.73,0,0,1-6.51-3.34C276.17,121.28,276.31,120.87,277.25,120.93Zm3-5.11a3.44,3.44,0,0,1,3.52,2.78c.2.75.13,1.11-.77,1.05s-2,0-3,0h-3.1c-.31,0-.62,0-.56-.49A4.38,4.38,0,0,1,280.28,115.81Z" style="fill:#6f6f6e"/><path d="M305.1,111c0-.56.1-1.14-.77-1.17s-1,.49-.95,1.16c0,1.78,0,3.56,0,5.53a6.16,6.16,0,0,1-.46-.44c-2.24-2.79-6.95-1.89-8.4,1.5a8.5,8.5,0,0,0-.32,5.85,5.11,5.11,0,0,0,5.9,3.89,5.26,5.26,0,0,0,3.21-1.91,2.14,2.14,0,0,1,.1.32c0,.6-.2,1.35.85,1.35s.83-.76.83-1.35Q305.11,118.33,305.1,111Zm-2.59,13.26a3.6,3.6,0,0,1-6.18-.36,6.15,6.15,0,0,1,0-5.88,3.6,3.6,0,0,1,6.55.27,5.38,5.38,0,0,1,.53,2.57A5.49,5.49,0,0,1,302.51,124.22Z" style="fill:#6f6f6e"/><path d="M310.88,120.93c1.15.08,2.32,0,3.47,0s2.4,0,3.59,0,1.39-.44,1.32-1.44a5.25,5.25,0,0,0-3.56-4.91,6.06,6.06,0,0,0-6.63,2.42,7.06,7.06,0,0,0,.64,8.35,6.75,6.75,0,0,0,8.26,1c.5-.3,1.17-.56.75-1.35s-1-.35-1.49,0a7.4,7.4,0,0,1-.74.4,4.73,4.73,0,0,1-6.57-3.23C309.76,121.34,309.84,120.85,310.88,120.93Zm3.1-5.12a3.49,3.49,0,0,1,3.45,3c.14.69-.07.83-.69.81-1,0-2,0-3,0h-3.22c-.31,0-.62.05-.57-.48A4.43,4.43,0,0,1,314,115.8Z" style="fill:#6f6f6e"/><path d="M221.36,120.93c1.15.08,2.32,0,3.47,0s2.4,0,3.59,0,1.37-.43,1.32-1.44a5.16,5.16,0,0,0-7.08-4.82,5.79,5.79,0,0,0-4.12,5.35,6.11,6.11,0,0,0,2.75,6.22,6.67,6.67,0,0,0,7.26,0c.48-.27,1.06-.57.65-1.29s-1-.38-1.48,0a5.46,5.46,0,0,1-.85.44,4.72,4.72,0,0,1-6.46-3.27C220.24,121.34,220.33,120.85,221.36,120.93Zm3-5.12a3.48,3.48,0,0,1,3.52,2.93c.15.68.05.94-.69.91-1,0-2.07,0-3.1,0H221c-.33,0-.6,0-.53-.5A4.39,4.39,0,0,1,224.37,115.8Z" style="fill:#6f6f6e"/><path d="M420,117.79a3.56,3.56,0,0,0-2.83-3.19,7.29,7.29,0,0,0-5.22.68c-.5.25-.78.57-.49,1.13a.75.75,0,0,0,1.2.3A5.29,5.29,0,0,1,416,116a2.57,2.57,0,0,1,2.37,2.43c.09.77-.1,1.07-.93,1a12.38,12.38,0,0,0-4.48.63,3.72,3.72,0,0,0-2.74,4.11,3.84,3.84,0,0,0,3.75,3.1c1.95.16,3.33-.75,4.56-2.5,0,.68,0,1.06,0,1.44,0,.56.22.79.78.79s.84-.23.83-.77A79.84,79.84,0,0,0,420,117.79Zm-5.28,8.09a2.5,2.5,0,0,1-2.65-1.79c-.29-1.25.26-2.19,1.67-2.78a10.86,10.86,0,0,1,4.12-.53c.31,0,.53.08.54.46C418.51,123.4,417.06,125.87,414.77,125.87Z" style="fill:#6f6f6e"/><path d="M374.9,117.58a3.5,3.5,0,0,0-2.88-3,7.19,7.19,0,0,0-5,.65c-.49.24-1,.51-.62,1.17s.77.57,1.31.26a5.06,5.06,0,0,1,2.87-.69,2.57,2.57,0,0,1,2.68,2.1c.21,1,.09,1.47-1.13,1.41a10.24,10.24,0,0,0-4.79.86,3.57,3.57,0,0,0-2.2,3.53,3.49,3.49,0,0,0,2.64,3.2c2.32.7,4.15,0,5.69-2.3,0,.74,0,1.14,0,1.53s.24.71.74.73.87-.15.87-.72A70.17,70.17,0,0,0,374.9,117.58Zm-1.76,5.17c-.57,2.05-2,3.25-3.82,3.11A2.41,2.41,0,0,1,367,124a2.23,2.23,0,0,1,1.45-2.58,7.84,7.84,0,0,1,3.26-.61C373.52,120.77,373.64,120.94,373.14,122.75Z" style="fill:#6f6f6e"/><path d="M266.21,118.35a3.77,3.77,0,0,0-1.94-3.37,7.16,7.16,0,0,0-6.43.43.72.72,0,0,0-.23,1,.67.67,0,0,0,1,.35,10.15,10.15,0,0,1,1.77-.71c2.12-.53,3.67.26,4.09,2,.2.86.18,1.42-1,1.38a10.09,10.09,0,0,0-5.12,1,3.45,3.45,0,0,0-1.94,3.66,3.26,3.26,0,0,0,2.47,2.92,4.58,4.58,0,0,0,5.56-1.85c.27.34.13.67.17,1,.06.53.23.9.88.89s.81-.34.8-.91C266.24,123.54,266.27,120.95,266.21,118.35Zm-1.86,4.35c-.6,2.14-2.07,3.33-3.91,3.15a2.46,2.46,0,0,1-2.29-1.95,2.18,2.18,0,0,1,1.35-2.42,7.12,7.12,0,0,1,3.48-.69C264.72,120.77,264.84,120.94,264.35,122.7Z" style="fill:#6f6f6e"/></svg>